<?xml version="1.0" encoding="UTF-8"?>
<svg id="Layer_1" data-name="Layer 1" xmlns="http://www.w3.org/2000/svg" viewBox="0 0 782.85 90.68">
  <path d="m208.24,58.46c-1.91,2.09-3.78,4.12-5.64,6.17-5.91,6.49-11.81,12.98-17.72,19.46-1.75,1.93-3.49,3.87-5.3,5.75-.39.4-1.03.8-1.56.81-10.78.04-21.55.03-32.33.02-.07,0-.14-.06-.45-.21,7.34-7.88,14.63-15.7,21.92-23.51,7.31-7.83,14.62-15.65,21.95-23.49-14.57-14.43-29.01-28.72-43.59-43.16C146.01.13,146.23,0,146.44,0c10.19.02,20.38.09,30.57.06,1.8,0,3.03.54,4.31,1.86,6.41,6.58,12.98,13.02,19.48,19.51,2.05,2.05,4.1,4.09,6.1,6.2.74.78,1.18.8,1.98,0,9.08-9.02,18.2-17.99,27.34-26.95.38-.37,1.1-.56,1.66-.56,10.03-.03,20.05-.01,30.08-.01,1.08,0,2.15,0,3.5,0-14.94,14.34-29.72,28.53-44.6,42.81,15.05,15.88,30.01,31.67,45.16,47.66-.62.04-1.01.09-1.39.09-10.65,0-21.3.01-31.95-.02-.59,0-1.36-.25-1.73-.65-6.24-6.8-12.42-13.66-18.62-20.49-3.33-3.67-6.69-7.33-10.09-11.05Z"/>
  <path d="m713.12,62.89c2.36,4.39,6.06,6.67,10.36,8.19,5.89,2.08,12,2.49,18.19,2.42,9.08-.1,17.99-1.22,26.6-4.16,1.45-.49,2.86-1.11,4.21-1.82.79-.41,1.21-.26,1.61.43.89,1.53,1.8,3.06,2.7,4.59,1.48,2.53,2.94,5.07,4.44,7.58.38.64.44.97-.35,1.43-5.77,3.36-12.09,5.2-18.56,6.59-8.89,1.91-17.91,2.77-27,2.47-10.39-.34-20.62-1.72-30.33-5.67-6.29-2.56-12.05-5.93-16.57-11.11-8.55-9.8-9.24-23.4-1.58-34.14,4.27-5.99,10.16-10,16.87-12.9,8.67-3.74,17.79-5.26,27.18-5.51,9.81-.26,19.42.84,28.65,4.3,7.47,2.8,13.93,7.04,18.47,13.7,3.21,4.7,5.12,9.87,4.8,15.67-.11,2.05-.21,4.1-.2,6.16,0,1.33-.65,1.72-1.84,1.72-3.74,0-7.49.05-11.23.05-18.14,0-36.27,0-54.41-.01-.61,0-1.22,0-2.02,0Zm39.7-12.88c.03-.27.06-.39.05-.51-.02-.2-.05-.41-.09-.61-.77-3.88-3.11-6.6-6.54-8.41-6.26-3.31-12.91-3.74-19.75-2.38-4.22.84-7.98,2.56-10.85,5.85-1.51,1.73-2.64,3.66-2.99,6.06h40.17Z"/>
  <path d="m320.19,21.34c11.06.03,21.91,1.36,32.09,5.95,7.66,3.45,14.14,8.36,18,16.03,5.92,11.76,2.74,26.31-7.41,34.78-6.39,5.33-13.81,8.45-21.83,10.31-8.84,2.05-17.8,2.61-26.87,2.06-8.7-.53-17.15-2.1-25.17-5.53-7.32-3.14-13.55-7.65-17.7-14.62-6.75-11.33-4.41-24.84,3.71-33.69,5.57-6.06,12.67-9.62,20.45-11.99,7.24-2.21,14.68-3.16,22.23-3.31.83-.02,1.66,0,2.5,0Zm-.79,17.45c-3.96-.09-8.6.65-12.91,2.86-5.44,2.79-8.59,7.14-8.99,13.27-.41,6.43,2.21,11.37,7.7,14.76,3.75,2.31,7.91,3.34,12.3,3.57,6.25.33,12.22-.39,17.81-3.54,10.2-5.75,10.52-20.8.54-27.03-4.75-2.96-10.05-3.96-16.45-3.9Z"/>
  <path d="m379.14,23.23h29.8c.04.21.1.4.1.59,0,10.02,0,20.04.02,30.06,0,2.34-.12,4.72.24,7.02,1.04,6.5,5.3,10.84,11.8,12.13,4.67.93,9.35.88,13.93-.6,7.17-2.33,11.71-8.11,12.21-15.59.15-2.22.11-4.45.11-6.67,0-8.86,0-17.73,0-26.59,0-.08.05-.15.12-.32.32-.02.68-.05,1.04-.05,9.15,0,18.31.02,27.46-.02,1.12,0,1.48.26,1.48,1.43-.04,20.86-.03,41.73,0,62.59,0,1.05-.34,1.33-1.36,1.33-7.74-.03-15.48-.04-23.22.01-1.1,0-1.43-.41-1.61-1.35-.85-4.53-1.75-9.05-2.63-13.58-.05-.27-.13-.54-.26-1.06-.48.56-.9.95-1.19,1.4-5.2,8.14-12.79,12.95-22.07,15.15-10.2,2.42-20.35,2.3-30.01-2.15-9.12-4.21-14.41-11.47-15.72-21.37-.43-3.25-.35-6.58-.36-9.87-.02-10.51.04-21.03.07-31.54,0-.28.02-.56.04-.93Z"/>
  <path d="m73.49,90.62h-29.9V25.43h25.76c1.07,5.28,2.13,10.52,3.23,15.94.36-.5.64-.87.89-1.26,5.06-7.85,12.3-12.73,21.27-15.12,10.29-2.75,20.53-2.66,30.41,1.6,9.73,4.19,15.08,11.82,16.49,22.17.31,2.28.37,4.6.37,6.91-.02,11.25-.11,22.51-.12,33.76,0,1.15-.51,1.25-1.43,1.25-8.99-.02-17.97-.04-26.96.01-1.21,0-1.53-.35-1.52-1.53.05-10.55.07-21.11,0-31.66-.01-2.08-.24-4.21-.75-6.22-1.36-5.39-5.03-8.75-10.32-10.23-5.12-1.43-10.34-1.29-15.36.43-6.94,2.38-10.77,7.43-11.78,14.59-.22,1.54-.25,3.12-.26,4.68-.02,9.48-.01,18.96-.01,28.44v1.43Z"/>
  <path d="m678.36,61.63c-1,2.43-1.77,4.78-2.9,6.95-2.75,5.3-6.97,9.27-12,12.47-7.04,4.48-14.8,6.99-22.99,8.37-5.89,1-11.81,1.43-17.77,1.21-12.21-.46-24.09-2.35-34.81-8.64-7.83-4.59-13.65-10.91-15.42-20-2.2-11.26,1.21-20.86,9.9-28.47,6.63-5.81,14.64-8.84,23.17-10.6,7.36-1.52,14.82-2.03,22.34-1.55,9.54.62,18.8,2.38,27.3,6.97,4.65,2.51,8.84,5.66,11.7,10.17,1.38,2.17,2.3,4.63,3.43,6.95.46.93,0,1.27-.86,1.41-3.57.57-7.14,1.14-10.7,1.72-4.84.79-9.68,1.55-14.51,2.39-1.15.2-1.67.1-2.09-1.22-1.48-4.69-4.98-7.55-9.55-9-7.26-2.3-14.5-1.77-21.45,1.17-9.31,3.94-12.36,15.51-6.24,23.15,2.62,3.27,6.19,5.08,10.18,6.09,7.61,1.93,15.22,2.09,22.71-.58,5.44-1.94,9.6-5.35,11.79-10.82.34-.85.53-2.04,1.17-2.39.63-.34,1.74.19,2.64.33,8,1.24,16.01,2.47,24.01,3.71.16.02.31.07.95.21Z"/>
  <path d="m486.65,25.41c.5-.02.9-.06,1.3-.06,7.45,0,14.89.02,22.34-.02,1.06,0,1.49.28,1.75,1.35,1.01,4.07,2.15,8.12,3.25,12.17.14.51.33,1,.57,1.71.27-.41.45-.65.58-.91,5.12-10.72,17.23-17.48,29.64-16.25,8.44.84,14.63,5.19,18.73,12.51,2.53,4.51,3.71,9.39,4.28,14.47.13,1.15-.17,1.58-1.43,1.81-8.29,1.5-16.57,3.1-24.84,4.72-.98.19-1.07-.2-1.22-.98-.46-2.42-.77-4.91-1.61-7.19-1.45-3.95-4.01-7.03-8.58-7.49-5.15-.51-8.91,1.88-11.48,6.15-1.98,3.28-2.95,6.94-2.99,10.72-.11,9.56-.04,19.12-.04,28.68,0,1.23,0,2.46,0,3.78-.48.02-.88.06-1.28.06-9.19,0-18.39-.02-27.58.03-1.11,0-1.41-.32-1.41-1.39.02-20.2.01-40.4,0-60.59,0-1.06,0-2.13,0-3.29Z"/>
  <path d="m.06,90.57c0-.66,0-1.27,0-1.87C.04,60.01.01,31.33,0,2.64,0,.09.02.07,2.54.07c9.61,0,19.22,0,28.82.02,1.63,0,1.63.02,1.63,1.64,0,29.22,0,58.44.02,87.66,0,.84-.13,1.29-1.14,1.29-10.27-.03-20.55-.02-30.82-.02-.28,0-.56-.05-1-.09Z"/>
</svg>