<?xml version="1.0" encoding="UTF-8"?>
<svg xmlns="http://www.w3.org/2000/svg" xmlns:xlink="http://www.w3.org/1999/xlink" viewBox="0 0 505.65 500">
  <defs>
    <style>
      .cls-1 {
        fill: #fff;
      }

      .cls-2 {
        fill: #5c5cbc;
      }

      .cls-3 {
        stroke: #343947;
        stroke-miterlimit: 10;
      }

      .cls-3, .cls-4 {
        fill: none;
      }

      .cls-5 {
        fill: #3d5481;
      }

      .cls-6 {
        fill: #d47e0f;
      }

      .cls-7 {
        fill: #2e0968;
      }

      .cls-8 {
        isolation: isolate;
      }

      .cls-9 {
        fill: #181344;
      }

      .cls-10 {
        fill: #a80f5c;
      }

      .cls-11 {
        fill: #b7b7ed;
      }

      .cls-12, .cls-13 {
        opacity: .4;
      }

      .cls-14 {
        fill: #af680b;
      }

      .cls-15 {
        fill: #d6871e;
      }

      .cls-16 {
        clip-path: url(#clippath);
      }

      .cls-17 {
        fill: #3f1085;
      }

      .cls-18 {
        fill: #9c9ced;
      }

      .cls-19 {
        fill: #591c9d;
      }

      .cls-20 {
        fill: #e51b77;
      }

      .cls-21 {
        fill: #ff8c64;
      }

      .cls-22 {
        fill: #e6ccd8;
      }

      .cls-23 {
        fill: #f99410;
      }

      .cls-13 {
        fill: #99607b;
        mix-blend-mode: multiply;
      }

      .cls-24 {
        fill: #c41766;
      }

      .cls-25 {
        fill: #d4602c;
      }
    </style>
    <clipPath id="clippath">
      <rect class="cls-4" x="5.65" width="500" height="500"/>
    </clipPath>
  </defs>
  <g class="cls-8">
    <g id="OBJECTS">
      <g class="cls-16">
        <g>
          <path class="cls-17" d="m185.19,38.78h-92.36c-.47,0-.84-.38-.84-.84s.38-.84.84-.84h92.36c.47,0,.84.38.84.84s-.38.84-.84.84Z"/>
          <path class="cls-17" d="m194.76,49.5h-54.65c-.47,0-.84-.38-.84-.84s.38-.84.84-.84h54.65c.47,0,.84.38.84.84s-.38.84-.84.84Z"/>
          <path class="cls-17" d="m112.49,342.41H40.37c-.47,0-.84-.38-.84-.84s.38-.84.84-.84h72.12c.47,0,.84.38.84.84s-.38.84-.84.84Z"/>
          <path class="cls-17" d="m65.09,329.09H10.44c-.47,0-.84-.38-.84-.84s.38-.84.84-.84h54.65c.47,0,.84.38.84.84s-.38.84-.84.84Z"/>
          <path class="cls-17" d="m494.07,104.03h-35.25c-.47,0-.84-.38-.84-.84s.38-.84.84-.84h35.25c.47,0,.84.38.84.84s-.38.84-.84.84Z"/>
          <path class="cls-17" d="m484.41,91.56h-61.14c-.47,0-.84-.38-.84-.84s.38-.84.84-.84h61.14c.47,0,.84.38.84.84s-.38.84-.84.84Z"/>
          <path class="cls-17" d="m170.66,66.97h-73.85c-.47,0-.84-.38-.84-.84s.38-.84.84-.84h73.85c.47,0,.84.38.84.84s-.38.84-.84.84Z"/>
          <path class="cls-17" d="m74.69,355.96H.84c-.47,0-.84-.38-.84-.84s.38-.84.84-.84h73.85c.47,0,.84.38.84.84s-.38.84-.84.84Z"/>
          <path class="cls-17" d="m501.32,248.9h-72.12c-.47,0-.84-.38-.84-.84s.38-.84.84-.84h72.12c.47,0,.84.38.84.84s-.38.84-.84.84Z"/>
          <path class="cls-17" d="m453.92,235.58h-54.65c-.47,0-.84-.38-.84-.84s.38-.84.84-.84h54.65c.47,0,.84.38.84.84s-.38.84-.84.84Z"/>
          <path class="cls-17" d="m459.35,259.37h-73.85c-.47,0-.84-.38-.84-.84s.38-.84.84-.84h73.85c.47,0,.84.38.84.84s-.38.84-.84.84Z"/>
        </g>
        <g>
          <g>
            <path class="cls-1" d="m327.75,48.66c0-3.47-2.81-6.28-6.28-6.28s-6.28,2.81-6.28,6.28,2.81,6.28,6.28,6.28,6.28-2.81,6.28-6.28Z"/>
            <circle class="cls-11" cx="55.24" cy="224.25" r="12.86"/>
            <path class="cls-18" d="m451.56,48.66c0-6.23-5.05-11.28-11.28-11.28s-11.28,5.05-11.28,11.28,5.05,11.28,11.28,11.28,11.28-5.05,11.28-11.28Z"/>
            <path class="cls-18" d="m79.37,417.47c0-6.23-5.05-11.28-11.28-11.28s-11.28,5.05-11.28,11.28,5.05,11.28,11.28,11.28,11.28-5.05,11.28-11.28Z"/>
          </g>
          <g>
            <path class="cls-1" d="m85.97,98.22c0-3.47-2.81-6.28-6.28-6.28s-6.28,2.81-6.28,6.28,2.81,6.28,6.28,6.28,6.28-2.81,6.28-6.28Z"/>
            <path class="cls-1" d="m477.81,339.34c0-3.47-2.81-6.28-6.28-6.28s-6.28,2.81-6.28,6.28,2.81,6.28,6.28,6.28,6.28-2.81,6.28-6.28Z"/>
            <path class="cls-1" d="m255.84,214.97c0-2.63-2.13-4.76-4.76-4.76s-4.76,2.13-4.76,4.76,2.13,4.76,4.76,4.76,4.76-2.13,4.76-4.76Z"/>
            <path class="cls-1" d="m173.76,231.89c0-2.63-2.13-4.76-4.76-4.76s-4.76,2.13-4.76,4.76,2.13,4.76,4.76,4.76,4.76-2.13,4.76-4.76Z"/>
          </g>
        </g>
        <g>
          <path class="cls-1" d="m270.17,95.07c12.99-8.56,15.94-26.64,5.71-38.96-7.88-9.49-21.75-12.18-32.62-6.35-11.59,6.21-16.43,19.45-12.79,31.13.33,1.07.23,2.22-.38,3.16l-5.49,8.4c-.47.72.14,1.64.99,1.5l9.88-1.74c1.1-.19,2.2.16,3.05.89,8.71,7.45,21.61,8.59,31.65,1.97Z"/>
          <g>
            <path class="cls-23" d="m260.07,83.27h-20.24c-1.21,0-2.13-1.08-1.93-2.27l2.68-16.35h24.2l-2.78,16.98c-.16.95-.97,1.64-1.93,1.64Z"/>
            <polygon class="cls-23" points="263.97 69.63 239.76 69.63 240.58 64.65 264.78 64.65 263.97 69.63"/>
            <g>
              <path class="cls-23" d="m275.42,69.24h-7.26c-.78,0-1.42-.63-1.42-1.42s.63-1.42,1.42-1.42h7.26c.78,0,1.42.63,1.42,1.42s-.63,1.42-1.42,1.42Z"/>
              <path class="cls-23" d="m274.42,75.37h-7.26c-.78,0-1.42-.63-1.42-1.42s.63-1.42,1.42-1.42h7.26c.78,0,1.42.63,1.42,1.42s-.63,1.42-1.42,1.42Z"/>
              <path class="cls-23" d="m273.41,81.51h-7.26c-.78,0-1.42-.63-1.42-1.42s.63-1.42,1.42-1.42h7.26c.78,0,1.42.63,1.42,1.42s-.63,1.42-1.42,1.42Z"/>
            </g>
            <polygon class="cls-20" points="252.39 83.27 246.87 83.27 249.92 64.65 255.44 64.65 252.39 83.27"/>
            <polygon class="cls-12" points="263.79 70.97 239.59 70.97 239.82 69.63 264.03 69.63 263.79 70.97"/>
          </g>
        </g>
        <g>
          <g>
            <g>
              <path class="cls-21" d="m245.24,136.08s3.49,7.51,9.68,7.3c5-.17,8.16-5.9,9.19-8.1.25-.53.37-.85.37-.85,0,0,.36-.06.88-.21,1.22-.36,3.32-1.21,3.75-2.95.61-2.48-4.2-2.71-4.2-2.71,0,0,1.7-2.65.72-3.96-.96-1.29-4.08-.74-4.08-.74,0,0,2.67-3.03,1.06-4.57-2.42-2.32-4.94,1.68-5.16,1.92.14-.3,6.31-13.13,3.78-13.27-2.21-.12-8.06,10.35-9.62,13.21-.25.45-.38.71-.38.71,0,0-.16-.06-.43-.15-1.3-.43-5.2-1.45-6.83.94-1.98,2.88,1.28,13.43,1.28,13.43Z"/>
              <path class="cls-25" d="m259.85,130.7c-.83.86-1.47,1.9-1.54,2.78-.04.57.16,1.04.57,1.35.28.22.71.36,1.2.45,1.23.22,2.91.11,4.03-.01.25-.53.37-.85.37-.85,0,0,.36-.06.88-.21-.08-.04-.17-.05-.27-.03-1.76.28-4.84.5-5.63-.11-.1-.08-.22-.21-.2-.53.07-.97,1.4-2.6,2.73-3.35.21-.12.3-.38.21-.6-.09-.23-.34-.34-.58-.27-1.13.34-4.32,1.02-5.46.14-.17-.13-.16-.22-.15-.27.02-.23.22-.52.52-.83.62-.63,1.66-1.35,2.44-1.79.09-.05.16-.12.2-.21.07-.14.07-.3,0-.44-.13-.23-.42-.31-.65-.19-.35.19-1.57.9-2.46,1.76-.32.31-.61.65-.78.99-.12.21-.19.43-.2.64-.02.3.05.74.53,1.1,1.01.77,2.83.7,4.26.47Z"/>
              <path class="cls-25" d="m254.33,124.44c.16.12.23.31.18.5-.16.6-.22,1.15-.11,1.53.09.3.24.39.37.43.2.06.49.06.84,0,.86-.15,2.06-.63,3.12-1.13-.04.09-.11.16-.2.21-.78.43-1.82,1.15-2.44,1.79-.11.03-.22.05-.33.07-.34.06-.67.08-.94.06-.12-.01-.23-.03-.34-.07-.5-.16-.84-.53-1-1.07-.16-.57-.1-1.31.1-2.06.09-.32.46-.45.73-.25,0,0,0,0,.01,0Z"/>
              <path class="cls-25" d="m246.08,127.16c.11.05,1.79.86,3.59,1.18.99.18,2.03.22,2.84-.11.67-.27,1.14-.74,1.4-1.41.91-2.37-1.05-4.58-2.31-5.68-.25.45-.38.71-.38.71,0,0-.16-.06-.43-.15,1.06.9,2.97,2.86,2.23,4.78-.16.41-.44.69-.86.86-1.58.62-4.62-.54-5.66-1.05-.24-.12-.52-.02-.64.22-.12.24-.01.52.22.64Z"/>
              <path class="cls-25" d="m252.64,139.22c.16.03.33-.03.45-.16.17-.2.15-.5-.05-.67-1.08-.92-1.64-2.02-1.66-3.25-.06-3.16,3.31-6.3,3.35-6.34.19-.18.21-.48.03-.68-.18-.19-.48-.21-.68-.03-.15.14-3.72,3.47-3.66,7.06.03,1.52.7,2.85,2,3.96.07.06.14.09.22.11Z"/>
            </g>
            <path class="cls-1" d="m197.36,131.29v-.02s0-.02,0,0l.02.05.05.1.13.26.29.56c.1.19.2.39.31.59.1.2.21.4.32.6.43.8.89,1.62,1.37,2.42.96,1.61,1.96,3.22,3.03,4.78,1.07,1.56,2.17,3.1,3.33,4.58.59.73,1.17,1.47,1.78,2.19.59.73,1.22,1.42,1.83,2.13,1.26,1.38,2.54,2.72,3.88,3.99.32.33.67.63,1.01.94.34.31.67.63,1.02.93.7.59,1.38,1.21,2.09,1.77,1.4,1.17,2.87,2.22,4.35,3.26,1.5.99,3.01,1.96,4.58,2.81.39.21.78.44,1.17.65l1.2.6.6.3.15.08-.08-.04-.1-.05c-.14-.06-.28-.11-.43-.15-.61-.22-1.31-.32-1.94-.32-.16,0-.29,0-.44.01-.07,0-.14.02-.21.03l-.18.02c-.12.01-.24.04-.35.07-.09.01-.18.04-.27.06-.04.01-.09.04-.12.04-.03,0-.06.02-.09.03-.06.02-.13.05-.17.07-.04.01-.07.03-.11.05l-.05.03s-.01,0-.02,0c-.12.08.13-.04.48-.32.36-.28.82-.72,1.31-1.23.49-.51,1.01-1.11,1.53-1.76,1.05-1.29,2.12-2.79,3.16-4.35,1.04-1.57,2.07-3.23,3.08-4.93,1.01-1.7,2.01-3.45,2.97-5.23.97-1.78,1.93-3.58,2.86-5.4.47-.91.94-1.82,1.39-2.73l1.33-2.64,17.96,6.99-.29.89-.28.82-.56,1.62c-.38,1.07-.77,2.14-1.17,3.2-.81,2.12-1.67,4.23-2.58,6.32-.92,2.09-1.88,4.18-2.92,6.27-.52,1.04-1.06,2.08-1.62,3.13-.56,1.04-1.15,2.08-1.76,3.13-1.23,2.09-2.56,4.18-4.13,6.3-.79,1.06-1.63,2.13-2.59,3.21-.95,1.09-2.01,2.18-3.29,3.29-1.29,1.11-2.79,2.26-4.83,3.32l-.38.19c-.13.06-.28.13-.42.19-.28.13-.56.25-.85.37-.3.12-.62.23-.93.34l-.48.16c-.16.05-.34.1-.51.15-.35.09-.7.18-1.05.26-.37.08-.76.14-1.14.2-.19.03-.38.06-.58.08-.2.02-.41.04-.62.05-.41.03-.82.05-1.24.05-1.71,0-3.47-.3-5.11-.84-.4-.14-.79-.29-1.17-.45l-.29-.12-.26-.12-.21-.1-.85-.42-1.7-.84c-.56-.29-1.11-.6-1.66-.9-2.23-1.19-4.34-2.55-6.43-3.94-2.05-1.43-4.06-2.93-5.95-4.54-1.92-1.58-3.72-3.28-5.47-5.01l-1.29-1.32c-.43-.44-.83-.9-1.25-1.35-.41-.45-.83-.9-1.22-1.37l-1.2-1.39c-3.14-3.74-5.93-7.72-8.4-11.87-1.22-2.08-2.39-4.2-3.45-6.39-.53-1.1-1.05-2.2-1.53-3.35-.12-.28-.24-.57-.36-.87-.12-.29-.24-.58-.36-.88-.12-.29-.24-.61-.35-.92l-.4-1.11,19.11-7.28Z"/>
            <path class="cls-22" d="m251.06,143.56c.14.72-.34,1.42-1.06,1.55-.72.14-1.42-.34-1.55-1.06-.14-.72.34-1.42,1.06-1.55.72-.14,1.42.34,1.55,1.06Z"/>
            <g>
              <path class="cls-22" d="m230.58,173c-.25.07-.51-.04-.65-.27-2.18-3.82-3.49-9.02-3.54-9.23-.08-.3.11-.61.41-.69.3-.08.61.11.69.41.01.05,1.33,5.26,3.43,8.95.16.27.06.62-.21.77-.04.02-.08.04-.13.05Z"/>
              <path class="cls-22" d="m225.97,170.02c-.08.02-.17.03-.26.01-.31-.06-.51-.36-.45-.67.03-.17.81-4.2,1.35-5.49.12-.29.45-.43.74-.3.29.12.43.45.3.74-.5,1.18-1.28,5.22-1.29,5.26-.04.22-.2.38-.41.44Z"/>
            </g>
            <g>
              <path class="cls-22" d="m257.96,153.09c-.14.04-.3.02-.44-.06-5.9-3.44-18.33-8.02-18.45-8.06-.29-.11-.45-.43-.34-.73.11-.29.43-.45.73-.34.13.05,12.65,4.66,18.63,8.15.27.16.36.51.2.78-.08.13-.2.22-.34.26Z"/>
              <path class="cls-22" d="m252.41,150.28c-.12.03-.26.03-.39-.03-.29-.13-.41-.46-.29-.75l3.68-8.18c.13-.29.46-.41.75-.29.29.13.41.46.29.75l-3.68,8.18c-.07.16-.21.27-.37.31Z"/>
            </g>
          </g>
          <g>
            <path class="cls-1" d="m206.25,233.09c-4.79,4.47-11.56,8.14-19.87,10.51-6.37,1.82-13.43,2.85-20.64,2.82-9.48-.03-16.88-1.69-25.68-5.97-2.66-7.26-7.92-33.36-8.71-41.11-.16-1.54-.28-3.08-.38-4.63-.49-7.43-.38-14.91-.02-22.74.02-.42.04-.85.06-1.28.32-6.44.79-13.12,1.23-20.21.88-14.04,5.57-22.68,13.71-23.98,3.78-.6,6.78-1.67,8.99-2.71.27-.13.52-.25.77-.38,2.63-1.34,4.11-2.54,4.11-2.54l17.41.6c1.56,2.28,4.28,3.12,6.4,4.13.23.11.47.22.71.32,6.44,2.78,13.96,2.23,15.51,10,.97,4.88-2.76,14.92-2.37,35.27.03,1.49.08,3.04.16,4.65.07,1.5.17,3.05.29,4.66.11,1.49.24,3.04.4,4.62.14,1.39.29,2.81.47,4.27.18,1.5.38,3.03.61,4.61,1.21,8.46,4.07,28.21,6.85,39.08Z"/>
            <path class="cls-22" d="m173.86,136.91c-.61,0-1.22-.04-1.84-.13-8.77-1.21-15.77-10.42-16.06-10.81-.16-.22-.12-.52.1-.69.22-.16.52-.12.69.1.07.09,7.06,9.28,15.42,10.43,3.32.46,6.46-.42,9.31-2.6.21-.16.52-.12.69.09.16.21.12.52-.09.69-2.54,1.95-5.29,2.92-8.2,2.92Z"/>
            <path class="cls-19" d="m148.04,126.12c8.74,12.4,10.31,29.6,10.31,29.6,10.18-.49,30.4-.63,30.4-.63.91-13.33-3.14-28.97-3.14-28.97,1.82-.02,5.08,1.85,5.08,1.85,3.79,16.55,2.22,27.26,6.74,50.52,4.52,23.26,9.21,56.27,9.21,56.27l-66.52,7.31c-3.65-8.48-6.01-21.74-8.13-35.89,0,0,11.59-16.17,17.84-36.14,6.24-19.97-6.56-42.78-6.56-42.78,1.44-.84,2.94-1.48,4.77-1.14Z"/>
            <path class="cls-7" d="m190.33,208.64c-10.02,0-18.23-5.01-23.64-9.59-6.78-5.74-10.73-12.05-10.77-12.12-.14-.23-.07-.53.16-.67.23-.14.53-.07.67.16.04.06,3.92,6.26,10.59,11.9,6.12,5.18,15.92,10.93,27.83,8.93.27-.04.52.14.56.4.04.27-.14.52-.4.56-1.71.29-3.39.42-5.01.42Z"/>
            <path class="cls-7" d="m143.14,234.23c-.22,0-.44-.12-.55-.34-5.34-10.66-8.31-30.24-8.34-30.44-.05-.33.18-.65.52-.7.33-.05.65.18.7.52.03.19,2.97,19.59,8.22,30.07.15.3.03.67-.27.82-.09.04-.18.06-.27.06Z"/>
            <path class="cls-7" d="m176.14,182.63c-4.24,0-7.72-1.31-10.36-3.89-5.34-5.22-5.36-13.72-5.36-14.08,0-.26.21-.48.48-.49l28.21-.75s0,0,.01,0c.23,0,.44.17.48.4.07.36,1.64,8.9-2.78,14.4-2.26,2.8-5.66,4.29-10.13,4.4-.19,0-.37,0-.56,0Zm-14.72-17.49c.09,1.85.71,8.65,5.05,12.9,2.56,2.5,5.99,3.71,10.2,3.6,4.16-.11,7.32-1.47,9.39-4.03,3.61-4.49,2.9-11.44,2.65-13.19l-27.29.72Z"/>
            <g>
              <path class="cls-9" d="m157.91,88.99s-6.53,11.61-5.38,15.71c1.15,4.1,4.34,1.9,4.34,1.9,0,0-3.98,7.23.29,9.32,2.69,1.31,5.4-4.25,5.4-4.25,0,0,3.67-19.12-4.66-22.67Z"/>
              <path class="cls-9" d="m186.69,97.5s5.04,9.71,2.93,13.41c-2.1,3.7-4.67.8-4.67.8,0,0,2.12,7.98-2.52,8.97-2.93.63-4.22-5.42-4.22-5.42,0,0-.46-16.31,8.48-17.76Z"/>
              <path class="cls-21" d="m178.92,119.48l-.58,4.76c-.61.38-1.22.71-1.83.98-8.88,3.96-17.05-3.28-17.05-3.28l2.02-16.52,15.37,12.38,2.08,1.68Z"/>
              <path class="cls-9" d="m178.92,119.48l-.58,4.76c-.61.38-1.22.71-1.83.98-6.7-3.65-10.93-11.67-10.93-11.67l11.26,4.25,2.08,1.68Z"/>
              <g>
                <path class="cls-9" d="m184.65,80.81s11.38,2.49,5.75,14.02c0,0-6.4-10.91-5.75-14.02Z"/>
                <path class="cls-25" d="m187.45,99.09s3.1-2.87,4.24.52c1.14,3.38-.83,9.71-4.82,8.15l.58-8.67Z"/>
                <path class="cls-21" d="m188.97,110.66s-1.19,9.85-11.43,8.58c-10.18-1.26-16.14-10.11-16.46-10.52,0,0,0-.01,0-.01l.14-2.08.73-10.82.39-5.78s-.04-10.5,10.02-11.19c7.35-.5,13.94,1.51,16.88,5.67,1.08,1.53,1.67,3.36,1.62,5.46l-.94,10.35-.23,2.54-.71,7.79Z"/>
                <path class="cls-9" d="m177.33,96.65c-.11.92-.61,1.62-1.13,1.56-.52-.06-.85-.85-.74-1.78.11-.92.61-1.62,1.13-1.56.52.06.85.85.74,1.78Z"/>
                <path class="cls-9" d="m186.6,97.72c-.11.92-.61,1.62-1.13,1.56-.52-.06-.85-.85-.74-1.78.11-.92.61-1.62,1.13-1.56.52.06.85.85.74,1.78Z"/>
                <path class="cls-25" d="m176.39,99.97c-.09.72-1.64,1.12-3.46.9-1.82-.22-3.23-.98-3.14-1.7.09-.72,1.64-1.12,3.46-.9,1.82.22,3.23.98,3.14,1.7Z"/>
                <path class="cls-25" d="m189.68,102.87c-.26,0-.53-.03-.8-.06-1.82-.22-3.23-.98-3.14-1.7.09-.72,1.64-1.12,3.46-.9.25.03.49.07.71.12l-.23,2.54Z"/>
                <g>
                  <path class="cls-9" d="m173.28,92.07c.92.54,2.96,1.23,5.34-1.13.29-.29.34-.74.12-1.09h0c-.27-.44-.86-.55-1.27-.24-.72.55-1.95,1.17-3.51.73-.49-.14-.99.19-1.08.69l-.02.12c-.07.37.1.74.43.93Z"/>
                  <path class="cls-9" d="m189.66,93.57c-1,.39-3.12.75-5.09-1.96-.24-.33-.22-.79.05-1.1h0c.34-.39.94-.41,1.29-.04.62.65,1.74,1.46,3.35,1.27.5-.06.95.35.96.85v.12c.01.37-.21.71-.56.85Z"/>
                  <path class="cls-9" d="m181.9,106.84c1.19.14,2.48-.04,3.84-.77.2-.11.27-.36.16-.55-.11-.2-.36-.27-.55-.16-4.85,2.64-8.95-2.87-8.99-2.92-.13-.18-.39-.22-.57-.09-.18.13-.22.39-.09.57.03.05,2.61,3.49,6.2,3.93Z"/>
                </g>
                <path class="cls-9" d="m164.78,105.11c-.06.1-1.72,2.95-3.7,3.61,0,0,0-.01,0-.01l.14-2.08s1.65-.08,3.56-1.51Z"/>
                <path class="cls-21" d="m163.81,98.05s-3.29-5.77-6.69-1.97c-2.8,3.14.61,12.61,5.69,10.13l1-8.16Z"/>
                <path class="cls-9" d="m162.47,104.55s.03,0,.04,0c.23,0,.41-.18.41-.4.06-4.56-3.54-6.58-3.69-6.66-.2-.11-.45-.04-.55.16-.11.2-.04.45.16.55h0c.14.07,3.32,1.88,3.27,5.94,0,.21.15.39.36.41Z"/>
                <path class="cls-9" d="m158.98,101.63c.09.01.18,0,.27-.06h0c.39-.24,1.54-.81,2.22-.55.21.08.45-.02.53-.23.08-.21-.02-.45-.23-.53-1.18-.46-2.77.51-2.95.62-.19.12-.25.37-.13.56.07.11.18.17.3.19Z"/>
                <path class="cls-9" d="m180.89,101.54c2.4.29,3.42-1.29,3.46-1.35.07-.1.08-.23.04-.35-1.23-3.59-2.47-7.29-2.49-7.32-.07-.21-.3-.33-.52-.26-.21.07-.33.3-.26.52.01.04,1.21,3.59,2.42,7.12-.27.31-1.06,1.01-2.56.83-.22-.03-.43.13-.45.36-.03.22.13.43.36.45Z"/>
              </g>
              <path class="cls-9" d="m189.23,84.51c-.11.34-.3.62-.56.83-2.24,1.85-6.86.53-11.06-1.35-4.2-1.88-7.64.91-7.64.91.7,4.32-3.44,4.16-2.96,7.43.14.93.17,1.94.14,2.9,0,.32-.02.63-.04.94-.13,1.99-.46,3.57-.46,3.57l-2.52-.65c-.2-.83-.61-1.71-1.38-2.51-.23-.24-.5-.47-.8-.69-.57-.42-1.28-.79-2.14-1.09-3.06.19-2.47-6.05-.33-10.78,0,0,2.81-4.49,12.87-5.18,7.35-.5,13.94,1.51,16.88,5.67Z"/>
              <path class="cls-19" d="m158.02,88.11l5.45-3.21.7-.41,1.54-.91c10.38-3.26,22.67-1.09,22.67-1.09,0,0-1.35-9.33-12.93-11.13-4.19-.65-7.73-.07-10.5,1.24-.48.23-.93.48-1.36.74-2.57,1.59-4.31,3.87-5.13,6.31-1.76,5.22-.44,8.46-.44,8.46Z"/>
              <path class="cls-7" d="m163.47,84.9l.7-.41c-1.67-2.27-1.98-5.04-.92-8.27.47-1.44,1.14-2.7,1.71-3.62-.48.23-.93.48-1.36.74-.4.76-.8,1.65-1.12,2.62-1.13,3.42-.78,6.47.99,8.93Z"/>
              <path class="cls-7" d="m180.51,74.21s-4.08-1.99-10.13.02l.55,3.31s5.69-1.22,9.58-.7v-2.63Z"/>
              <path class="cls-7" d="m191.95,88.36s14.35-5.98,8.34-12.42c-6.01-6.44-22.99-3.63-34.57,7.63,0,0,25.46-4.73,26.23,4.79Z"/>
            </g>
          </g>
          <path class="cls-22" d="m200.36,138.29c-.02.16-1.28,12.71-1.81,23.35-.07-.05-.14-.1-.21-.15-.31-.22-.61-.45-.92-.67.55-10.51,1.75-22.49,1.77-22.65.03-.32.32-.56.64-.52.32.03.56.32.52.64Z"/>
          <g>
            <g>
              <polygon class="cls-21" points="115.08 419.43 114.08 433.53 128.56 433.81 129.36 420.57 115.08 419.43"/>
              <path class="cls-19" d="m173.28,257.82l-.87,2.34-28.22,75.99c0,31.4-14.19,88.04-14.19,88.04l-17.01-.81,4.67-88.56.06-1.21c.03-.11.05-.22.08-.33,4.36-17.44,13.44-61.02,19.61-82.04.17-.59.34-1.16.5-1.71.53-1.81,1-3.4,1.39-4.72.33-1.1.6-2.02.8-2.72,0,0,0,0,0,0,.31-1.05.48-1.61.48-1.61l4.77,2.53,1.37.73,6.26,3.33,20.28,10.77Z"/>
              <path class="cls-7" d="m126.68,333.73c-2.26.9-4.57,1.2-6.64,1.2-.84,0-1.64-.05-2.38-.13l.06-1.21c.03-.11.05-.22.08-.33.71.07,1.47.12,2.27.12,1.9,0,4-.27,6.04-1.08.39-.16.84.03,1,.43.16.4-.03.84-.43,1Z"/>
              <g>
                <g>
                  <path class="cls-9" d="m131.84,449.87c0,.11,0,.22,0,.33-.01.5-.03.95-.05,1.33-.05.85-.11,1.37-.11,1.37h-28.11s-.14-1.09-.03-2.7c.18-2.87,1.14-7.41,5.02-10.41,5.31-4.11,3.26-3.25,4.35-5.12.12-.21,1.08-3.39,1.18-3.61.91-1.94,1.76-2.86,6.79-2.86,6.68,0,7.27,3.24,7.98,4.95.29.71.7,2.2,1.11,3.97.17.71.34,1.47.5,2.24.41,1.94.8,3.96,1.06,5.57.28,1.73.34,3.51.32,4.95Z"/>
                  <path class="cls-5" d="m131.84,449.87c0,.11,0,.22,0,.33-.01.5-.03.95-.05,1.33-1.37-.96-2.35-2.23-2.92-3.79-1.74-4.74.93-10.42,1.05-10.66l.06.03c.17.71.34,1.47.5,2.24-.63,1.93-1.36,5.19-.35,7.94.37,1,.95,1.86,1.72,2.58Z"/>
                  <path class="cls-5" d="m131.84,450.2c-.04,1.6-.17,2.7-.17,2.7h-28.11s-.14-1.09-.03-2.7h28.31Z"/>
                </g>
                <path class="cls-5" d="m121.8,436.95c-.07,0-.13,0-.2-.03-3.58-.93-6.49-.14-6.52-.13-.43.12-.87-.13-.99-.56-.12-.43.13-.87.56-.99.14-.04,3.36-.9,7.35.13.43.11.69.55.58.98-.09.36-.42.6-.78.6Z"/>
                <path class="cls-5" d="m122.26,433.72c-.07,0-.13,0-.2-.03-3.58-.93-6.49-.14-6.52-.13-.43.12-.87-.13-.99-.56-.12-.43.13-.87.56-.99.14-.04,3.36-.9,7.35.13.43.11.69.55.58.98-.09.36-.42.6-.78.6Z"/>
                <path class="cls-5" d="m120.6,439.49c-.07,0-.13,0-.2-.03-3.55-.92-6.49-.14-6.52-.13-.43.12-.87-.13-.98-.56-.12-.43.13-.87.56-.98.14-.04,3.36-.9,7.35.13.43.11.69.55.57.98-.09.36-.42.6-.78.6Z"/>
                <path class="cls-5" d="m119.19,442.38c-.07,0-.13,0-.2-.03-3.55-.92-6.49-.14-6.52-.13-.43.12-.87-.13-.98-.56-.12-.43.13-.87.56-.98.14-.04,3.36-.9,7.35.13.43.11.69.55.57.98-.09.36-.42.6-.78.6Z"/>
              </g>
              <path class="cls-7" d="m128.22,423.88c-.05,0-.1,0-.15-.02-.42-.08-.69-.49-.6-.91.07-.37,7.46-37.06,9.48-48.34,2.02-11.24,2.86-40.72,2.87-41.02,0-.1.03-.2.07-.29,4.79-10.72,26.73-70.72,26.95-71.33.15-.4.59-.6.99-.46.4.15.6.59.46.99-.22.6-21.99,60.15-26.93,71.29-.07,2.32-.93,30.17-2.89,41.09-2.03,11.3-9.42,48.01-9.49,48.38-.07.37-.39.62-.75.62Z"/>
            </g>
            <polygon class="cls-21" points="174.84 419.43 175.09 433.56 188.32 433.81 188.39 420.52 174.84 419.43"/>
            <g>
              <path class="cls-9" d="m219.31,453.35l-47.19-.51c-.34-.64-.53-1.55-.59-2.63-.25-3.99,1.09-10.35,1.75-14.36.08-.47.15-.91.2-1.3.09-.67.15-1.23.16-1.64.04-3.28,2.93-2.69,2.93-2.69,4.72,4.73,10.21-2.23,13.34.11,0,0,1.35.99,5.06,4.4,3.71,3.41,10.06,5.7,15.46,8.03,6.97,3,8.93,5.95,9.29,7.97.29,1.6-.42,2.62-.42,2.62Z"/>
              <path class="cls-5" d="m219.31,453.35l-47.19-.51c-.34-.64-.53-1.55-.59-2.63l48.2.52c.29,1.6-.42,2.62-.42,2.62Z"/>
              <path class="cls-5" d="m176.93,452.9l-1.4-.02c1.42-1.58,2.75-4.02,2.62-7.53-.18-4.67-2.94-7.84-4.87-9.5.08-.47.15-.91.2-1.3,2.08,1.62,5.57,5.17,5.79,10.75.13,3.35-1,5.84-2.34,7.59Z"/>
              <path class="cls-5" d="m194.14,437.51c-.35,0-.66-.24-.75-.6-.1-.42.16-.84.58-.94l2.96-.7c.42-.1.84.16.94.58.1.42-.16.84-.58.94l-2.96.7c-.06.01-.13.02-.19.02Z"/>
              <path class="cls-5" d="m190.91,434.93c-.35,0-.66-.24-.75-.6-.1-.42.16-.84.58-.94l2.96-.7c.42-.1.84.16.94.58.1.42-.16.84-.58.94l-2.96.7c-.06.01-.13.02-.19.02Z"/>
              <path class="cls-5" d="m197.07,439.26c-.35,0-.66-.24-.75-.6-.1-.42.16-.84.58-.94l2.96-.7c.42-.1.84.16.94.58.1.42-.16.84-.58.94l-2.96.7c-.06.02-.13.02-.19.02Z"/>
              <path class="cls-5" d="m200,440.94c-.35,0-.66-.24-.75-.6-.1-.42.16-.84.58-.94l2.96-.7c.42-.1.84.16.94.58.1.42-.16.84-.58.94l-2.96.7c-.06.01-.13.02-.19.02Z"/>
              <path class="cls-5" d="m203.2,442.49c-.35,0-.66-.24-.75-.6-.1-.42.16-.84.58-.94l2.96-.7c.42-.1.84.16.94.58.1.42-.16.84-.58.94l-2.96.7c-.06.02-.13.02-.19.02Z"/>
              <path class="cls-5" d="m206.67,443.83c-.35,0-.66-.24-.75-.6-.1-.42.16-.84.58-.94l2.96-.7c.42-.1.84.16.94.58.1.42-.16.84-.58.94l-2.96.7c-.06.02-.13.02-.19.02Z"/>
            </g>
            <path class="cls-19" d="m208.63,247.63c0,.48,0,.95-.01,1.43,0,1.12-.02,2.24-.03,3.35,0,.58-.01,1.15-.02,1.73,0,.08,0,.16,0,.23,0,.53,0,1.06-.02,1.59-.41,34.56-1.63,66.14-4.12,88.8h0s-.28,1.56-.28,1.56l-13.92,78.37-17.91-1.51s.65-62.05,4.59-76.21l-.07-86.86v-12.5s24.13,2.54,24.13,2.54l1.5-.49.89-.29,1.47-.48,3.78-1.24Z"/>
            <path class="cls-7" d="m204.43,344.76h0s-.28,1.56-.28,1.56c-.28.01-.56.02-.83.02-5.83,0-10.73-2.86-10.99-3.01-.36-.22-.49-.69-.27-1.05.22-.37.69-.49,1.05-.27.09.05,5.42,3.15,11.31,2.75Z"/>
            <path class="cls-7" d="m175.85,418.32s.06,0,.09,0c.41,0,.75-.34.74-.75-.42-52.32,6.14-73.05,6.21-73.26.03-.08.04-.16.04-.24l-1.31-82.98c0-.41-.35-.74-.76-.74-.41,0-.74.35-.74.76l1.31,82.86c-.55,1.81-6.64,23.1-6.24,73.61,0,.38.29.7.66.74Z"/>
            <path class="cls-19" d="m207.21,251.77c-5.41,3.61-17.73,6.55-30.21,7.95-1.53.17-3.06.32-4.58.44-14.48,1.18-28.04.11-29.95-4.58-.24-.58-.46-1.19-.65-1.83,0-.02,0-.04-.01-.05-.14-.47-.28-.95-.4-1.44-.22-.88-.4-1.8-.56-2.73-.09-.55-.18-1.1-.25-1.65-.12-.86-.21-1.74-.28-2.61,0-.08-.01-.16-.02-.25-.08-.99-.14-1.97-.18-2.94-.12-2.88-.06-5.59.03-7.72.12-2.7.31-4.47.31-4.47l61.02-12.8s1.89,5.47,3.72,12.08c.6,2.15,1.18,4.43,1.7,6.67.72,3.16,1.31,6.28,1.55,8.91.05.56.09,1.1.11,1.62.1,2.68-.26,4.67-1.34,5.39Z"/>
            <path class="cls-7" d="m208.55,246.37c-.07-.02-.12-.03-.17-.05-1.11-.38-2.17-.89-3.18-1.55-.27-.17-.53-.35-.79-.54-.98-.71-1.85-1.52-2.64-2.39-4.94-5.42-6.41-13.07-6.48-13.45-.08-.41.19-.8.6-.87.41-.08.8.19.87.6.02.09,1.52,7.91,6.45,13.06.72.76,1.53,1.47,2.41,2.08.13.09.26.18.39.26.78.5,1.59.91,2.44,1.23.05.56.09,1.1.11,1.62Z"/>
            <path class="cls-7" d="m150.23,235.78c-.07.27-1.14,4.12-3.5,7.94-1.44,2.33-3.36,4.65-5.84,6.13-.29.17-.58.33-.88.48-.84.42-1.71.72-2.6.9.17-.59.34-1.16.5-1.72.48-.15.96-.33,1.42-.56.45-.22.88-.48,1.3-.76,1.94-1.32,3.51-3.24,4.72-5.2,2.31-3.71,3.36-7.55,3.38-7.62.11-.41.53-.65.94-.54.41.11.65.53.54.94Z"/>
            <path class="cls-7" d="m183.07,256.46c.02.33-.25.61-.59.63t0,0c-.34.02-.64-.24-.65-.57-.11-2.26-.24-4.57-.39-6.87-.03-.41-.05-.81-.08-1.22-.49-7.54-1.11-14.95-1.58-20.17-.04-.42-.07-.83-.11-1.23-.1-1.15-.2-2.16-.28-3.03.41-.06.83-.13,1.24-.2.08.86.18,1.89.28,3.05.04.39.07.8.11,1.23.46,5.18,1.08,12.52,1.57,20.02.03.41.05.83.08,1.24.15,2.39.29,4.79.4,7.12Z"/>
            <path class="cls-7" d="m184.84,248.51c-.19.09-1.07.5-2.18.83-.39.12-.8.23-1.23.31-.39.08-.79.13-1.18.15-.75.04-1.48-.04-2.09-.33-.76-.36-1.25-1.02-1.42-1.9-.45-2.33-1.41-11.93-2.05-18.73-.04-.42-.08-.83-.12-1.22-.1-1.09-.19-2.08-.27-2.92.41-.05.83-.1,1.24-.15.08.84.17,1.85.27,2.95.04.39.08.8.11,1.22.64,6.78,1.59,16.37,2.03,18.62.1.52.34.85.75,1.05.66.31,1.65.25,2.64.03.42-.09.84-.21,1.23-.33.71-.23,1.34-.49,1.71-.67.31-.15.68-.03.83.27.15.3.02.66-.28.81Z"/>
          </g>
          <g>
            <g>
              <rect class="cls-14" x="81.45" y="196.53" width="82.52" height="62.78"/>
              <polygon class="cls-15" points="163.98 259.31 170.68 252.89 170.68 189.8 163.98 196.51 163.98 259.31"/>
              <polygon class="cls-15" points="170.68 189.79 163.95 196.53 81.45 196.53 87.87 189.79 170.68 189.79"/>
            </g>
            <rect class="cls-23" x="90.5" y="196.53" width="12.51" height="62.78"/>
            <polygon class="cls-14" points="110.19 189.79 103.01 196.53 90.5 196.53 97.68 189.79 110.19 189.79"/>
            <rect class="cls-23" x="143.84" y="196.53" width="12.51" height="62.78"/>
            <polygon class="cls-14" points="163.53 189.79 156.34 196.53 143.84 196.53 151.02 189.79 163.53 189.79"/>
          </g>
          <g>
            <g>
              <path class="cls-21" d="m127.92,238.12s5.62,4.61,7.18,8.28c1.56,3.67-1.5,5.43-1.5,5.43,0,0,2.31,7.1.87,9.02-1.44,1.92-3.45.63-3.45.63,0,0-.31,1.71-1.45,2.1-1.14.4-2.99-1.14-2.99-1.14,0,0-.95,2.14-2.26,2.31s-2.61-1.3-2.61-1.3c0,0-2.33,2.36-3.91.95-3.65-3.24-6.21-20.86-6.21-20.86,0,0,9.41-4.99,16.34-5.42Z"/>
              <path class="cls-25" d="m133.49,251.78c-.17,0-.33-.09-.41-.25-1.44-2.75-2.99-6.04-3.01-6.07-.11-.23,0-.51.22-.62.23-.11.51,0,.62.22.02.03,1.56,3.31,2.99,6.04.12.23.03.51-.2.63-.07.04-.14.05-.22.05Z"/>
            </g>
            <path class="cls-1" d="m147.84,138.1l-6.95-9.02-.54.42-.43.35-.82.67c-.53.44-1.05.89-1.56,1.33-1.02.89-1.99,1.79-2.96,2.69-1.93,1.81-3.79,3.67-5.6,5.58-1.81,1.9-3.55,3.87-5.25,5.89-1.7,2.02-3.33,4.09-4.91,6.22-1.58,2.13-3.09,4.32-4.54,6.57-1.44,2.26-2.81,4.57-4.1,6.95-2.58,4.75-4.8,9.78-6.56,15.05-.44,1.32-.85,2.65-1.22,4l-.28,1.02-.22.88-.05.22-.04.2-.08.4c-.11.55-.17,1.02-.24,1.52l-.08.7c-.03.23-.05.47-.07.68-.15,1.76-.16,3.32-.13,4.8.04,1.48.12,2.88.24,4.25.23,2.73.58,5.32.97,7.87.4,2.54.84,5.04,1.33,7.5.49,2.46,1.01,4.9,1.56,7.32.55,2.42,1.14,4.82,1.74,7.21.61,2.39,1.25,4.76,1.9,7.14l1,3.55.52,1.78.55,1.82,18.53-4.72-.64-3.4-.64-3.46c-.42-2.31-.81-4.62-1.2-6.93-.39-2.31-.76-4.62-1.1-6.91-.35-2.3-.67-4.59-.96-6.87-.28-2.28-.55-4.53-.75-6.76-.2-2.22-.34-4.41-.41-6.47-.03-1.03-.03-2.03,0-2.95.03-.92.1-1.77.2-2.39,0-.09.02-.15.04-.22l.04-.19c.03-.09.05-.22.07-.25v-.04s.02-.02.02-.02h0s0,0,0,0l.23-.71c.31-.96.65-1.91,1.01-2.85,1.45-3.79,3.29-7.5,5.42-11.12,2.13-3.61,4.57-7.12,7.22-10.51,2.66-3.38,5.53-6.65,8.57-9.76,1.02-1.05,2.07-2.08,3.12-3.09-.45-5.33-1.17-10.64-1.98-15.93Z"/>
            <path class="cls-22" d="m121.96,237.42c-.06.75-.73,1.31-1.48,1.25-.75-.06-1.31-.73-1.25-1.48s.73-1.31,1.48-1.25c.75.06,1.31.73,1.25,1.48Z"/>
            <path class="cls-22" d="m109.26,236.48c-.25,0-.48-.16-.56-.42-.09-.31.08-.64.39-.73.1-.03,10.23-3.07,18.47-4.58.32-.06.62.15.68.47.06.32-.15.62-.47.68-8.18,1.5-18.25,4.52-18.35,4.55-.06.02-.11.02-.17.02Z"/>
            <path class="cls-22" d="m125.48,239.9c-.27,0-.51-.19-.57-.46l-1.5-7.06c-.07-.32.13-.63.45-.69.32-.07.63.14.69.45l1.5,7.06c.07.32-.13.63-.45.69-.04,0-.08.01-.12.01Z"/>
            <g>
              <path class="cls-22" d="m131,178.49c-.11,0-.22-.03-.32-.09-.27-.18-.35-.54-.17-.81.43-.67,10.64-16.44,17.52-22.35.24-.21.61-.18.82.06.21.24.18.61-.06.82-6.75,5.8-17.2,21.94-17.3,22.1-.11.17-.3.27-.49.27Z"/>
              <path class="cls-22" d="m144.83,159.83c-.28,0-.53-.21-.58-.5-.05-.32.17-.62.49-.67l5.02-.76c.32-.05.62.17.67.49.05.32-.17.62-.49.67l-5.02.76s-.06,0-.09,0Z"/>
            </g>
            <path class="cls-22" d="m123.55,193.9c-.07,0-.15-.01-.22-.04-4.44-1.82-9.11-2.41-9.16-2.42-.32-.04-.55-.33-.51-.65.04-.32.33-.55.65-.51.2.02,4.87.62,9.46,2.5.3.12.44.46.32.76-.09.23-.31.36-.54.36Z"/>
            <path class="cls-22" d="m123.4,193.58c-.2,0-.4-.1-.51-.29-.75-1.3-3.47-3.9-3.5-3.93-.23-.22-.24-.59-.02-.83.22-.23.59-.24.83-.02.12.11,2.86,2.75,3.7,4.19.16.28.07.64-.21.8-.09.05-.19.08-.29.08Z"/>
          </g>
        </g>
        <g>
          <g>
            <polygon class="cls-24" points="405.15 308.25 405.15 344.56 316.13 344.56 268.09 344.56 268.09 242.59 405.15 242.59 405.15 308.25"/>
            <rect class="cls-6" x="273.52" y="188.52" width="111.23" height="54.07"/>
            <g>
              <polygon class="cls-20" points="439.14 308.25 439.14 344.56 350.12 344.56 302.08 344.56 302.08 242.59 439.14 242.59 439.14 308.25"/>
              <rect class="cls-10" x="309.73" y="279.89" width="120.24" height="7.17"/>
              <rect class="cls-10" x="309.73" y="301.03" width="120.24" height="7.17"/>
              <rect class="cls-10" x="309.73" y="322.18" width="120.24" height="7.17"/>
              <path class="cls-10" d="m344.21,248.65h49.36v5.41c0,5.86-4.76,10.61-10.61,10.61h-28.13c-5.86,0-10.61-4.76-10.61-10.61v-5.41h0Z"/>
            </g>
            <g>
              <rect class="cls-23" x="307.51" y="188.52" width="111.23" height="54.07"/>
              <rect class="cls-14" x="356.49" y="188.52" width="13.28" height="28.71"/>
              <rect class="cls-15" x="387.12" y="196.77" width="25.47" height="9.55"/>
            </g>
          </g>
          <g>
            <rect class="cls-23" x="332.81" y="344.71" width="118.59" height="82.15"/>
            <rect class="cls-19" x="403.48" y="344.71" width="18.87" height="82.15"/>
            <rect class="cls-13" x="332.81" y="344.71" width="41.61" height="82.15"/>
            <rect class="cls-13" x="332.81" y="372.57" width="118.59" height="8.54"/>
          </g>
          <g>
            <rect class="cls-1" x="294.4" y="106.38" width="118.59" height="82.15"/>
            <rect class="cls-23" x="365.06" y="106.38" width="18.87" height="82.15"/>
            <rect class="cls-13" x="294.4" y="106.38" width="41.61" height="82.15"/>
            <rect class="cls-13" x="294.4" y="106.38" width="118.59" height="27.86"/>
            <path class="cls-1" d="m419.84,126.67h-70.04c-2.14,0-4.09-1.2-5.06-3.1l-8.73-17.19h76.98l8.74,17.22c.72,1.41-.31,3.08-1.89,3.08Z"/>
            <path class="cls-1" d="m287.17,126.67h36.27c1.39,0,2.67-.78,3.3-2.02l9.28-18.27h-41.61l-8.91,17.55c-.64,1.26.27,2.74,1.68,2.74Z"/>
          </g>
          <g>
            <rect class="cls-23" x="244.46" y="344.71" width="118.59" height="82.15"/>
            <rect class="cls-19" x="315.13" y="344.71" width="18.87" height="82.15"/>
            <rect class="cls-13" x="244.46" y="344.71" width="41.61" height="82.15"/>
            <rect class="cls-13" x="244.46" y="372.57" width="118.59" height="8.54"/>
          </g>
          <g>
            <polygon class="cls-20" points="225.71 247.12 175.99 237.06 175.99 225.31 225.71 235.36 225.71 247.12"/>
            <polygon class="cls-13" points="209.82 243.91 225.71 247.12 225.71 235.36 209.82 232.15 209.82 243.91"/>
            <g>
              <circle class="cls-19" cx="231.84" cy="443.57" r="10.16" transform="translate(-243.22 601.12) rotate(-80.75)"/>
              <path class="cls-19" d="m246.77,443.57h-9.56c0-2.96-2.41-5.38-5.38-5.38s-5.38,2.41-5.38,5.38h-9.56c0-8.23,6.7-14.94,14.94-14.94s14.94,6.7,14.94,14.94Z"/>
            </g>
            <g>
              <path class="cls-19" d="m406.49,443.57c0,5.61-4.55,10.16-10.16,10.16s-10.16-4.55-10.16-10.16,4.55-10.16,10.16-10.16,10.16,4.55,10.16,10.16Z"/>
              <path class="cls-19" d="m411.27,443.57h-9.56c0-2.96-2.41-5.38-5.38-5.38s-5.38,2.41-5.38,5.38h-9.56c0-8.23,6.7-14.94,14.94-14.94s14.94,6.7,14.94,14.94Z"/>
            </g>
            <path class="cls-20" d="m452.21,438.49h-242.48c-3.21,0-5.82-2.6-5.82-5.82h0c0-3.21,2.6-5.82,5.82-5.82h242.48c3.21,0,5.82,2.6,5.82,5.82h0c0,3.21-2.6,5.82-5.82,5.82Z"/>
            <g>
              <circle class="cls-1" cx="265.6" cy="443.57" r="10.16" transform="translate(-235.86 317.73) rotate(-45)"/>
              <path class="cls-19" d="m280.54,443.57h-9.56c0-2.96-2.41-5.38-5.38-5.38s-5.38,2.41-5.38,5.38h-9.56c0-8.23,6.7-14.94,14.94-14.94s14.94,6.7,14.94,14.94Z"/>
            </g>
            <g>
              <path class="cls-1" d="m440.26,443.57c0,5.61-4.55,10.16-10.16,10.16s-10.16-4.55-10.16-10.16,4.55-10.16,10.16-10.16,10.16,4.55,10.16,10.16Z"/>
              <path class="cls-19" d="m445.04,443.57h-9.56c0-2.96-2.41-5.38-5.38-5.38s-5.38,2.41-5.38,5.38h-9.56c0-8.23,6.7-14.94,14.94-14.94s14.94,6.7,14.94,14.94Z"/>
            </g>
            <path class="cls-20" d="m230.4,426.86v-206.08c0-3.21-2.6-5.82-5.82-5.82s-5.82,2.6-5.82,5.82v206.08h11.63Z"/>
            <path class="cls-1" d="m172.1,223.05c-4.24-.86-7.67-5.41-7.67-10.18h0c0-1.84-1.33-3.6-2.96-3.93-1.64-.33-2.96.89-2.96,2.73v16.85c0,3.6,2.59,7.04,5.79,7.69l21.47,4.42v-14.74l-13.67-2.84Z"/>
          </g>
          <line class="cls-3" x1="244.46" y1="344.71" x2="451.19" y2="344.71"/>
          <line class="cls-3" x1="363.05" y1="344.71" x2="363.05" y2="417.47"/>
        </g>
        <path class="cls-2" d="m452.6,455.94H58.7c-.83,0-1.5-.67-1.5-1.5s.67-1.5,1.5-1.5h393.9c.83,0,1.5.67,1.5,1.5s-.67,1.5-1.5,1.5Z"/>
      </g>
    </g>
  </g>
</svg>